<svg width="19" height="20" viewBox="0 0 19 20" fill="none" xmlns="http://www.w3.org/2000/svg">
<g id="Shopping cart" clip-path="url(#clip0_5476_2155)">
<path id="Icon" d="M-0.208252 2.29102H2.95841L5.08008 12.8914C5.15247 13.2559 5.35076 13.5833 5.64022 13.8163C5.92968 14.0494 6.29188 14.1731 6.66341 14.166H14.3584C14.7299 14.1731 15.0921 14.0494 15.3816 13.8163C15.6711 13.5833 15.8694 13.2559 15.9417 12.8914L17.2084 6.24935H3.75008M6.91675 18.1243C6.91675 18.5616 6.56231 18.916 6.12508 18.916C5.68786 18.916 5.33341 18.5616 5.33341 18.1243C5.33341 17.6871 5.68786 17.3327 6.12508 17.3327C6.56231 17.3327 6.91675 17.6871 6.91675 18.1243ZM15.6251 18.1243C15.6251 18.5616 15.2706 18.916 14.8334 18.916C14.3962 18.916 14.0417 18.5616 14.0417 18.1243C14.0417 17.6871 14.3962 17.3327 14.8334 17.3327C15.2706 17.3327 15.6251 17.6871 15.6251 18.1243Z" stroke="#1A1E22" stroke-width="1.33333" stroke-linecap="round" stroke-linejoin="round"/>
</g>
<defs>
<clipPath id="clip0_5476_2155">
<rect width="19" height="19" fill="white" transform="translate(0 0.5)"/>
</clipPath>
</defs>
</svg>
